<?xml version="1.0" standalone="no"?>
<!DOCTYPE svg PUBLIC "-//W3C//DTD SVG 20010904//EN"
 "http://www.w3.org/TR/2001/REC-SVG-20010904/DTD/svg10.dtd">
<svg version="1.0" xmlns="http://www.w3.org/2000/svg"
 width="195.000000pt" height="195.000000pt" viewBox="0 0 195.000000 195.000000"
 preserveAspectRatio="xMidYMid meet">
<metadata>
Created by potrace 1.15, written by Peter Selinger 2001-2017
</metadata>
<g transform="translate(0.000000,195.000000) scale(0.100000,-0.100000)"
fill="#000000" stroke="none">
<path d="M915 1761 c-28 -12 -69 -61 -100 -118 -15 -26 -37 -66 -51 -88 -13
-22 -34 -58 -45 -80 -12 -22 -24 -42 -28 -45 -9 -7 -61 -89 -61 -95 0 -4 -7
-13 -15 -22 -8 -8 -13 -19 -10 -24 4 -5 2 -9 -4 -9 -5 0 -13 -10 -17 -22 -8
-26 -55 -101 -67 -106 -4 -2 -5 -7 -2 -12 2 -4 -5 -19 -18 -33 -12 -15 -31
-43 -42 -64 -10 -21 -26 -46 -34 -55 -8 -10 -10 -18 -5 -18 5 0 4 -4 -2 -8 -6
-4 -25 -34 -44 -67 -19 -33 -37 -62 -41 -65 -3 -3 -23 -36 -42 -74 -20 -37
-44 -77 -53 -87 -9 -11 -13 -19 -8 -19 5 0 4 -4 -2 -8 -6 -4 -26 -34 -44 -67
-19 -33 -37 -62 -42 -63 -4 -2 -6 -8 -2 -13 3 -5 1 -9 -4 -9 -5 0 -23 -29 -41
-64 -18 -36 -37 -66 -42 -68 -6 -2 -11 -10 -13 -18 -2 -8 -6 -23 -11 -32 -6
-16 -1 -107 7 -113 2 -1 17 -11 35 -24 l32 -22 860 0 c567 0 867 3 879 10 11
6 22 8 25 5 7 -8 48 47 41 57 -3 5 -1 9 4 9 6 0 9 17 7 38 -3 42 -34 122 -47
122 -4 0 -8 6 -8 13 0 8 -9 22 -20 32 -11 10 -18 21 -15 25 2 3 -6 17 -18 31
-12 14 -23 31 -25 39 -2 8 -7 16 -12 18 -5 2 -23 32 -41 68 -18 35 -37 64 -42
64 -6 0 -8 3 -4 6 3 3 2 11 -4 18 -21 26 -58 86 -52 86 4 0 -4 11 -17 25 -13
14 -21 25 -17 25 5 0 -22 46 -50 86 -15 20 -32 49 -54 92 -13 23 -26 42 -31
42 -4 0 -7 3 -6 8 2 11 -14 45 -29 60 -7 7 -13 19 -13 26 0 7 -9 21 -19 30
-11 10 -32 42 -47 72 -15 30 -31 54 -36 54 -5 0 -7 4 -4 9 3 4 -3 18 -13 30
-10 12 -25 36 -32 53 -7 18 -21 40 -31 50 -10 10 -18 23 -18 28 0 6 -5 16 -10
23 -6 7 -23 32 -38 57 -16 25 -41 65 -57 90 -16 25 -30 47 -30 50 0 3 -7 15
-16 28 -25 35 -98 51 -144 33z m78 -188 c61 -90 750 -1241 762 -1275 7 -17
-35 -18 -782 -18 -434 0 -792 3 -796 6 -6 7 0 18 149 269 401 678 628 1055
634 1055 4 0 19 -17 33 -37z"/>
<path d="M696 928 c-9 -5 -23 -22 -31 -38 -14 -27 -14 -30 11 -49 14 -11 30
-35 35 -54 8 -28 18 -38 57 -55 93 -40 308 -114 342 -119 22 -3 68 5 123 22
109 33 113 48 27 94 -55 29 -100 74 -88 86 3 3 51 -15 108 -40 57 -25 110 -43
118 -40 28 10 -8 32 -114 70 -77 28 -114 46 -133 68 -58 66 -156 84 -256 46
-56 -21 -56 -21 -119 -1 -42 12 -69 16 -80 10z"/>
<path d="M453 678 c-20 -24 -183 -317 -183 -327 0 -8 72 -11 220 -11 l220 0
-2 173 -3 172 -121 3 c-89 2 -124 -1 -131 -10z"/>
<path d="M764 466 c-8 -21 -13 -18 70 -39 65 -16 72 -16 122 0 51 16 58 16
106 0 47 -15 56 -15 108 0 52 14 62 14 103 0 41 -14 51 -14 97 0 44 13 62 13
111 3 64 -14 111 -8 103 14 -6 15 -87 30 -156 28 -27 -1 -73 -1 -103 -1 -30 0
-77 -1 -105 -1 -27 0 -74 0 -102 0 -74 0 -165 -1 -218 -2 -25 -1 -64 3 -87 7
-35 6 -44 5 -49 -9z"/>
<path d="M767 394 c-19 -20 -2 -32 64 -44 56 -11 83 -11 125 -2 40 8 68 8 108
0 41 -9 67 -9 106 0 39 9 62 9 97 0 35 -8 60 -8 108 1 46 9 72 10 102 2 42
-12 130 -5 139 11 3 5 0 15 -6 23 -9 11 -18 12 -38 4 -19 -8 -42 -7 -78 1 -29
7 -68 9 -90 5 -21 -3 -58 -6 -81 -6 -74 2 -244 2 -323 1 -119 -2 -146 -1 -185
5 -22 4 -43 3 -48 -1z"/>
</g>
</svg>
